Coordinates
nRows=6
nColumns=38

# SIMM Motion File Header:
name Coordinates
datacolumns 38
datarows 6
otherdata 1
range 0.58999999999999997000 0.59499999999999997000

Units are S.I. units (second, meters, Newtons, ...)
Angles are in degrees.

endheader
time	pelvis_tilt	pelvis_list	pelvis_rotation	pelvis_tx	pelvis_ty	pelvis_tz	hip_flexion_r	hip_adduction_r	hip_rotation_r	knee_angle_r	ankle_angle_r	subtalar_angle_r	mtp_angle_r	hip_flexion_l	hip_adduction_l	hip_rotation_l	knee_angle_l	ankle_angle_l	subtalar_angle_l	mtp_angle_l	lumbar_extension	lumbar_bending	lumbar_rotation	arm_flex_r	arm_add_r	arm_rot_r	elbow_flex_r	pro_sup_r	wrist_flex_r	wrist_dev_r	arm_flex_l	arm_add_l	arm_rot_l	elbow_flex_l	pro_sup_l	wrist_flex_l	wrist_dev_l
      0.58999999999999997000	      1.54187555354303970000	     -4.93655089068638910000	     -0.99116857284653792000	      0.80755024354078797000	      0.97274252813932471000	     -0.32973424786262689000	      1.93535219580894320000	     10.92513338665898600000	      5.07117051086358920000	    -34.42447652186464800000	     25.91162500771346100000	     -0.00000000000000628513	      0.00000000000000753733	     27.26185545772888100000	     -1.92193166727792160000	      1.51303573041441820000	    -87.76740542151061700000	     -6.15733997836799940000	     -0.00000000000000895867	     -0.00000000000000000899	    -15.82141711249271900000	      4.12028001603348670000	      5.03105194649411300000	    -12.84704309493418800000	    -25.66724350940063500000	    -11.73291490701790200000	     91.65229330139523300000	     68.82625235377862800000	      0.00000000000000159035	     -0.00000000000000379319	    -16.58427901052400700000	    -16.53572528508479800000	     -0.50911046387181602000	     81.45081835733238100000	    102.12861672257381000000	      0.00000000000000022775	     -0.00000000000000194422
      0.59099999999999997000	      1.51324332316964650000	     -4.82983195151584790000	     -0.98613771888282209000	      0.80770182618639141000	      0.97318205491791565000	     -0.32976410754601804000	      1.61131923353274020000	     10.80103639587940600000	      5.13337751606283450000	    -34.12092352231430700000	     25.82135068344024400000	     -0.00000000000000655454	      0.00000000000000785116	     27.44280144233844600000	     -1.79483149651474340000	      1.48416352099778750000	    -87.46653230241030000000	     -6.08672733515434850000	     -0.00000000000000917592	     -0.00000000000000002011	    -15.76259079765716600000	      3.99519909717365400000	      5.06603420503970980000	    -12.82750914923630600000	    -25.68046388681536400000	    -11.76638320629626700000	     91.76026634026737800000	     68.79044764179387500000	      0.00000000000000160504	     -0.00000000000000380657	    -16.85246180914918300000	    -16.56809839052869600000	     -0.63761937647169398000	     81.60187610791864200000	    102.01688760436372000000	      0.00000000000000013375	     -0.00000000000000196199
      0.59199999999999997000	      1.48445780743532390000	     -4.72175831525647730000	     -0.98142033136777662000	      0.80785864023366283000	      0.97362871896810910000	     -0.32979536046396479000	      1.28651451235760430000	     10.67463359383874200000	      5.19365755221019930000	    -33.81427979846229400000	     25.72344643010879000000	     -0.00000000000000680712	      0.00000000000000814370	     27.62010418984040100000	     -1.66641121398997920000	      1.45403084497435040000	    -87.15870989802670000000	     -6.01603668365527700000	     -0.00000000000000940661	     -0.00000000000000005670	    -15.70312580363140700000	      3.86857755694526690000	      5.10046077314287060000	    -12.80962566182822100000	    -25.69259117771812500000	    -11.80076908468641000000	     91.86873497634665900000	     68.75560565650425800000	      0.00000000000000161913	     -0.00000000000000380654	    -17.12103691976655300000	    -16.60138860643926200000	     -0.76472012412150059000	     81.75554997647029200000	    101.90461671667515000000	      0.00000000000000003673	     -0.00000000000000198103
      0.59299999999999997000	      1.45557812986798750000	     -4.61235952012659830000	     -0.97693878279928681000	      0.80802057882329348000	      0.97408246573288704000	     -0.32982822328508654000	      0.96100550269992813000	     10.54589992505063400000	      5.25177149721834540000	    -33.50476579017876600000	     25.61768094547311100000	     -0.00000000000000706117	      0.00000000000000840454	     27.79370637973790200000	     -1.53665701271926910000	      1.42274325754613980000	    -86.84396326735104300000	     -5.94522006199899430000	     -0.00000000000000964300	     -0.00000000000000010233	    -15.64310455915048500000	      3.74048174928571160000	      5.13432161163580060000	    -12.79341070999949700000	    -25.70363118106830000000	    -11.83610265559850000000	     91.97765909146785600000	     68.72183902271531500000	      0.00000000000000163329	     -0.00000000000000381181	    -17.38987759301465600000	    -16.63552289586439800000	     -0.89037120230381739000	     81.91163361377714100000	    101.79199538354882000000	     -0.00000000000000005311	     -0.00000000000000200150
      0.59399999999999997000	      1.42666169905873640000	     -4.50166717783577840000	     -0.97261633504845979000	      0.80818753361703555000	      0.97454323595035963000	     -0.32986290707900129000	      0.63486174405566886000	     10.41481720123209000000	      5.30748601590703740000	    -33.19260351342030900000	     25.50383291774042500000	     -0.00000000000000733699	      0.00000000000000863977	     27.96355283060685800000	     -1.40555724523864600000	      1.39040852390861060000	    -86.52231697302035200000	     -5.87423469448426520000	     -0.00000000000000987666	     -0.00000000000000014661	    -15.58260793820171300000	      3.61097955064193820000	      5.16760840873332580000	    -12.77888383879713700000	    -25.71359040651024600000	    -11.87241172482519100000	     92.08700026903692000000	     68.68925230322958000000	      0.00000000000000164751	     -0.00000000000000382678	    -17.65886131636561600000	    -16.67042883196570500000	     -1.01453492687041740000	     82.06992610202196700000	    101.67920187990801000000	     -0.00000000000000013806	     -0.00000000000000201674
      0.59499999999999997000	      1.39776389992461580000	     -4.38971489210964630000	     -0.96837759510406407000	      0.80835939524644329000	      0.97501096522885833000	     -0.32989961631134213000	      0.30815477168543198000	     10.28137429956666100000	      5.36057475022050770000	    -32.87801593566126700000	     25.38169177780983400000	     -0.00000000000000763444	      0.00000000000000884836	     28.12959066464161100000	     -1.27310264089567000000	      1.35713616386994910000	    -86.19379500333266700000	     -5.80304335105008740000	     -0.00000000000001012069	     -0.00000000000000019184	    -15.52171485812911200000	      3.48014011578586400000	      5.20031466880120700000	    -12.76606573722153300000	    -25.72247607980563100000	    -11.90972149607159200000	     92.19672162455762500000	     68.65794186612421900000	      0.00000000000000166157	     -0.00000000000000384032	    -17.92787003535771700000	    -16.70603469893998000000	     -1.13717753161639920000	     82.23023214683014700000	    101.56640067193858000000	     -0.00000000000000023967	     -0.00000000000000203283
